<?xml version="1.0" encoding="utf-8"?>
<!-- Generator: Adobe Illustrator 23.0.1, SVG Export Plug-In . SVG Version: 6.00 Build 0)  -->
<svg version="1.1" id="Capa_1" xmlns="http://www.w3.org/2000/svg" xmlns:xlink="http://www.w3.org/1999/xlink" x="0px" y="0px"
	 viewBox="0 0 937 285.36" style="enable-background:new 0 0 937 285.36;" xml:space="preserve">
<style type="text/css">
	.st0{fill:#FF8A35;}
	.st1{fill:#789640;}
</style>
<g>
	<path d="M428.15,178.73c4.3-6.09,8.63-12.14,12.93-18.23c5.09-7.21,10.17-14.43,15.25-21.65c3.49-4.96,6.94-9.95,10.46-14.9
		c4.15-5.85,8.36-11.65,12.52-17.49c1.8-2.52,1.17-4.02-2.02-4.45c-2.04-0.27-4.13-0.25-6.2-0.25c-12.71-0.02-25.42,0.06-38.13-0.05
		c-3.82-0.03-6.41,1.22-8.52,4.58c-4.33,6.88-9.09,13.49-13.7,20.2c-10.93,15.9-21.87,31.8-32.82,47.68c-0.2,0.3-0.65,0.42-1.42,0.9
		c-0.76-2.44-0.69-4.73-0.69-7.02c0.04-15.75,0.08-31.5,0.11-47.24c0.01-4.56-0.01-9.12-0.07-13.68c-0.06-4.47-0.78-5.17-5.36-5.39
		c-1.24-0.06-2.49-0.08-3.73-0.08c-10.91,0.01-21.83,0.01-32.74,0.04c-8.21,0.02-8.66,0.5-8.62,8.7
		c0.16,38.82,0.33,77.63,0.47,116.45c0.05,14.78,0.01,29.56,0.02,44.34c0,2.62-0.01,5.25,0.13,7.87c0.17,3.03,0.97,3.78,4.06,4.08
		c0.96,0.09,1.93,0.09,2.9,0.1c8.29,0.02,16.58,0.06,24.86,0.05c4.7,0,9.4,0.01,14.09-0.15c3.26-0.11,4.01-0.99,4.01-3.93
		c0-16.57,0-33.15,0.01-49.72c0-1.66-0.1-3.35,0.18-4.96c0.2-1.14,0.69-2.62,1.55-3.17c3-1.94,6.16-3.66,9.37-5.25
		c2.11-1.05,3.01-0.64,4.01,1.34c3.59,7.13,7.08,14.31,10.74,21.4c7.08,13.7,14.31,27.33,21.36,41.05c1.02,1.99,2.4,2.94,4.45,3.15
		c1.65,0.17,3.31,0.26,4.96,0.26c11.47,0.04,22.93,0.07,34.4,0.07c3.31,0,6.64,0.01,9.94-0.22c3.01-0.2,3.72-1.92,2.22-4.52
		c-3.38-5.83-6.69-11.71-10.01-17.57c-8.63-15.22-17.28-30.43-25.88-45.67c-5.49-9.72-10.84-19.52-16.4-29.2
		c-1.13-1.97-1.21-3.53,0.11-5.29C427.42,180.23,427.67,179.4,428.15,178.73z"/>
	<path d="M628.58,165.22c-5.17-11.47-14.01-19-25.94-22.78c-8.11-2.57-16.46-3.43-24.96-2.55c-12.38,1.28-22.8,6.2-30.48,16.28
		c-0.55,0.72-1.3,1.29-2.24,2.2c0-5.36-0.08-10.04,0.01-14.71c0.34-16.15,0.78-32.31,1.08-48.46c0.08-4.23-0.84-5.14-5.13-5.16
		c-13.13-0.08-26.26-0.08-39.38,0c-4.47,0.03-5.46,1.09-5.5,5.36c-0.05,5.11,0.04,10.23,0.04,15.34
		c0.02,54.72,0.04,109.45,0.07,164.17c0,1.52,0.04,3.04,0.1,4.56c0.08,2.13,1.29,3.3,3.32,3.58c1.36,0.19,2.75,0.26,4.13,0.27
		c7.19,0.03,14.37,0.05,21.56,0.03c5.39-0.01,10.78-0.01,16.17-0.17c4.32-0.13,5.09-0.99,5.1-5.18c0.01-5.25-0.01-10.49-0.04-15.74
		c-0.09-12.85-0.59-25.71-0.19-38.54c0.31-9.86-0.59-19.84,2.79-29.55c4.35-12.49,11.91-15.55,22.27-14.43
		c4.11,0.44,7.04,2.79,8.99,6.52c2.77,5.32,3.42,11.13,3.49,16.88c0.28,22.52,0.23,45.05,0.29,67.57c0.01,2.49-0.12,4.98-0.02,7.46
		c0.16,3.92,1.04,4.92,5.03,4.95c13.4,0.11,26.81,0.12,40.21,0.03c3.95-0.03,4.55-0.8,4.55-4.71c-0.01-29.57-0.06-59.15-0.04-88.72
		C633.83,181.16,632.07,172.97,628.58,165.22z"/>
	<path d="M790.57,189.86c0.02-8.02-1.47-15.63-4.95-22.81c-3.49-7.2-8.37-13.31-15.11-17.75c-9.11-6-19.33-8.82-30.06-9.42
		c-15.52-0.86-30.95,0.26-46.02,4.28c-6.37,1.7-12.62,3.93-18.83,6.16c-3.22,1.16-4.03,3.3-2.81,6.25
		c2.48,5.98,4.96,11.96,7.59,17.88c1.28,2.88,2.85,5.65,4.42,8.39c1.03,1.8,2.65,2.33,4.61,1.45c6.69-3.01,13.64-5.13,20.74-6.96
		c5.72-1.48,11.41-2.02,17.22-1.72c8.35,0.43,12.15,4.05,13.37,12.38c0.59,4.07,0.21,4.62-3.9,4.84c-5.93,0.32-11.87,0.56-17.8,0.79
		c-13.5,0.51-26.7,2.51-39.02,8.34c-12.65,5.99-20.2,16.07-22.22,29.91c-1.56,10.71-0.33,21.13,4.28,31.14
		c6.29,13.64,17.31,20.39,31.68,21.98c5.99,0.66,12.14,0.33,18.19-0.09c9.63-0.67,18.25-4.07,25.43-10.75
		c2.91-2.71,5.86-5.38,9.3-8.55c1.12,1.67,1.96,2.75,2.61,3.93c1.6,2.89,3.38,5.73,4.58,8.79c1.53,3.87,4.29,5.07,8.11,5.03
		c7.88-0.08,15.75-0.03,23.63-0.1c4.48-0.04,5-0.6,5-5.06C790.59,248.73,790.5,219.3,790.57,189.86z M737.91,241.93
		c-3.96,5.79-9.75,7.7-17.25,7.55c-3.01-0.21-7.04,0.26-9.91-3.13c-0.62-0.73-1.52-1.43-1.7-2.27c-1.65-7.47-1.55-15.02,6.93-19.05
		c7.13-3.4,14.8-3.98,22.56-3.78c1.76,0.04,2.89,1.03,2.97,2.81C741.8,230.3,741.63,236.5,737.91,241.93z"/>
	<path d="M928.92,250.58c-0.02-4.12-1.16-5.51-5.28-5.88c-3.02-0.27-6.07-0.19-9.11-0.19c-12.02-0.01-24.05,0.04-36.07-0.01
		c-1.82-0.01-3.64-0.36-5.91-0.6c0.7-1.36,0.98-2.13,1.44-2.77c2.93-4,5.85-8,8.86-11.94c6.03-7.9,12.16-15.72,18.18-23.63
		c7.53-9.88,15.04-19.78,22.42-29.78c1.09-1.47,1.92-3.49,1.99-5.29c0.31-8.14,0.37-16.3,0.39-24.45c0.01-2.75-0.94-3.55-3.84-3.8
		c-1.51-0.13-3.04-0.1-4.56-0.1c-31.37-0.03-62.74-0.06-94.11-0.09c-1.24,0-2.49-0.01-3.73,0.08c-3.88,0.28-4.97,1.27-4.99,5.07
		c-0.04,8.84-0.04,17.69,0.13,26.53c0.1,5.58,1.49,6.81,6.95,6.81c13.27,0.02,26.53,0.02,39.8,0.02c1.77,0,3.53,0,5.3,0
		c0.18,0.34,0.35,0.68,0.53,1.02c-0.62,1.02-1.16,2.09-1.88,3.04c-10.63,13.93-21.26,27.85-31.94,41.74
		c-6.39,8.32-12.84,16.59-19.32,24.84c-1.79,2.28-2.73,4.73-2.71,7.63c0.04,5.25-0.01,10.5,0,15.75c0.01,8.32,0.37,8.71,8.56,8.72
		c29.85,0.03,59.7,0.06,89.55,0.07c5.11,0,10.23,0.01,15.33-0.2c3.28-0.14,4.09-1.18,4.08-4.42
		C928.99,269.38,928.97,259.98,928.92,250.58z"/>
	<path class="st0" d="M28.71,117.97c5.89,1.95,11.77,3.89,17.63,5.94c12.5,4.37,24.96,8.81,37.46,13.19
		c3.28,1.15,3.86,0.81,5.5-2.29c2.7-5.13,4.86-10.68,8.32-15.24c9.44-12.42,21.47-21.2,37.05-24.78
		c15.63-3.58,30.52-1.76,44.52,5.73c12.81,6.86,22.27,17.08,27.76,30.72c0.36,0.89,0.54,1.86,0.91,2.75
		c1.15,2.72,3.11,3.87,5.95,3.15c3.48-0.87,6.94-1.85,10.31-3.07c13.23-4.79,26.44-9.64,39.62-14.59c3.47-1.3,6.9-2.83,10.15-4.61
		c2.73-1.49,3.68-4.09,2.88-6.21c-1.13-2.96-3.69-4.6-6.86-4.14c-1.76,0.26-3.51,0.76-5.19,1.38c-4.15,1.52-8.26,3.14-12.37,4.76
		c-8.86,3.49-17.73,6.98-26.57,10.53c-3.59,1.44-5.86,2.14-7.54,1.98c-2.09-4.34-4.58-8.46-7.42-12.31
		c0.28-1.12,1.09-2.26,2.53-3.84c5.29-5.8,10.87-11.35,16.33-17c8.64-8.93,17.33-17.83,25.93-26.8c2.67-2.79,5.22-5.7,7.67-8.69
		c1.97-2.41,1.83-5.25-0.05-7.62c-1.76-2.22-4.24-2.93-7.04-1.47c-1.78,0.93-3.35,2.4-4.75,3.87c-7.78,8.22-15.47,16.52-23.2,24.78
		c-1.6,1.71-3.27,3.37-4.87,5.09c-6.21,6.67-12.35,13.39-18.61,20.01c-0.98,1.04-1.72,1.69-2.42,2
		c-5.09-4.92-10.86-9.14-17.16-12.52c0.04-0.8,0.33-1.77,0.85-3.09c1.31-3.33,2.92-6.55,4.38-9.83c4.77-10.72,9.61-21.42,14.23-32.2
		c1.07-2.49,1.61-5.28,1.99-7.99c0.41-2.97-0.58-4.47-2.82-5.35c-2.44-0.96-4.88-0.2-6.54,2.09c-0.48,0.67-0.91,1.4-1.24,2.15
		c-3.71,8.47-7.39,16.96-11.1,25.43c-3.21,7.34-6.37,14.7-9.71,21.97c-0.38,0.83-0.74,1.47-1.12,1.95
		c-6.02-2.09-12.37-3.46-18.96-3.99c-0.44-0.68-0.67-1.53-0.66-2.55c0.01-0.97-0.04-1.93-0.04-2.9c0-20.03,0.03-40.07-0.04-60.1
		c-0.01-3.44-0.48-6.88-0.7-10.32c-0.15-2.32-1.5-3.42-3.64-3.84c-2.9-0.56-5.33,0.57-6.26,3.43c-0.62,1.93-0.83,4.06-0.85,6.1
		c-0.08,10.78-0.04,21.55-0.04,32.33c-0.06,0-0.11,0-0.17,0c0,11.19,0.03,22.38-0.01,33.57c-0.01,1.91-0.19,3.3-0.67,4.33
		c-5.54,0.49-10.92,1.55-16.06,3.15c-1.44-0.55-2.29-1.86-3.44-4.5c-0.28-0.63-0.55-1.27-0.83-1.9
		c-6.18-13.72-12.35-27.44-18.56-41.15c-0.57-1.25-1.23-2.5-2.07-3.58c-1.19-1.56-4.08-2.03-6.11-1.18
		c-1.99,0.84-2.56,2.51-2.2,4.42c0.46,2.43,0.89,4.93,1.85,7.19c3.98,9.4,8.15,18.73,12.26,28.08c2.22,5.05,4.45,10.1,6.7,15.14
		c0.38,0.85,0.55,1.61,0.5,2.31c-6.51,3.3-12.49,7.5-17.77,12.43c-0.44-0.37-0.94-0.88-1.58-1.54
		c-6.51-6.76-12.98-13.55-19.46-20.33c-4.96-5.19-9.88-10.42-14.9-15.55c-5.41-5.53-10.82-11.06-16.42-16.4
		c-2.73-2.61-5.45-2.36-7.62,0.1c-2.41,2.74-2.18,5.44,0.39,8.04c5.44,5.47,10.81,11.02,16.19,16.56
		c8.55,8.81,17.13,17.6,25.6,26.49c3.14,3.29,6,6.85,8.98,10.29c0.33,0.38,0.58,0.76,0.75,1.15c-3.44,4.39-6.41,9.16-8.84,14.24
		c-0.23-0.05-0.51-0.12-0.86-0.21c-1.08-0.25-2.18-0.44-3.21-0.82c-7.37-2.72-14.71-5.53-22.09-8.23
		c-7.26-2.65-14.53-5.31-21.86-7.75c-5.18-1.73-8.95,1.67-7.95,6.95C24,116.17,26.26,117.16,28.71,117.97z"/>
	<path class="st1" d="M285.48,137.13c-4.6,0.91-9.18,1.9-13.79,2.72c-10.89,1.94-21.58,4.71-32.09,8.13
		c-20.7,6.74-40.31,15.81-58.89,27.23c-15.7,9.65-30.52,20.43-44.07,32.88c-16.73,15.38-31.45,32.54-43.93,51.58
		c-1.13,1.72-2.16,3.54-2.93,5.44c-1.09,2.68-0.45,4.74,1.57,6.26c1.91,1.44,4.89,1.34,6.88-0.45c1.11-1,1.96-2.29,2.88-3.5
		c6.19-8.12,12.11-16.46,18.61-24.33c9.86-11.93,20.59-23.12,32.49-33.04c8.16-6.8,16.51-13.45,25.35-19.3
		c12.53-8.3,25.34-16.23,39.48-21.69c6.95-2.68,13.7-5.95,20.77-8.24c10.75-3.48,21.58-6.75,32.77-8.66
		c5.97-1.02,11.87-2.5,17.73-4.05c4.43-1.17,5.39-4.35,2.98-8.26C289.89,137.59,287.84,137.34,285.48,137.13z"/>
	<path class="st1" d="M281.56,177.28c-0.39,0.04-0.94,0.05-1.48,0.16c-3.38,0.7-6.75,1.41-10.12,2.13
		c-21.34,4.56-41.48,12.27-60.78,22.46c-18.99,10.02-35.95,22.77-51.04,37.84c-8.37,8.36-15.57,17.9-23.04,27.11
		c-2.22,2.74-3.9,6.03-5.26,9.31c-1.13,2.73-0.15,4.88,1.69,5.78c2.18,1.06,5.12,0.45,6.75-1.51c4.34-5.19,8.63-10.42,12.97-15.61
		c7.72-9.23,15.92-18.01,25.2-25.7c5.63-4.66,11.46-9.08,17.22-13.58c3.15-2.46,6.18-5.14,9.55-7.26
		c12.54-7.9,25.84-14.28,39.75-19.36c10.64-3.88,21.46-7.13,32.68-8.96c2.83-0.46,5.62-1.46,8.3-2.53c2.58-1.03,3.54-3.63,2.86-6.6
		C286.18,178.14,284.91,177.23,281.56,177.28z"/>
	<path class="st1" d="M69.28,159.87c7.35,0.25,14.45,1.9,21.54,3.59c4.41,1.05,8.7,2.62,12.99,4.12c6.1,2.14,12.25,4.18,18.17,6.74
		c6.32,2.73,12.38,6.07,18.6,9.04c1.59,0.76,3.36,1.14,4.21,1.42c3.28-0.01,4.83-1.24,5.77-3.28c0.98-2.09,0.16-3.77-1.44-5.14
		c-0.83-0.71-1.77-1.3-2.69-1.9c-8.56-5.64-17.63-10.3-27.25-13.81c-7.64-2.79-15.34-5.5-23.16-7.71
		c-10.38-2.93-21.05-4.5-31.81-5.23c-16.47-1.13-32.84-0.2-49.02,3.22c-1.62,0.34-3.22,0.8-4.78,1.35c-2.88,1.02-3.98,3.3-3.14,6.23
		c1.16,4.02,3.78,5.3,8.92,4.11c11.22-2.59,22.62-3.59,34.08-3.66C56.61,158.92,62.94,159.65,69.28,159.87z"/>
	<path class="st1" d="M62.85,193.17c6.44,0.4,12.88,1.5,19.2,2.84c4.14,0.87,8.1,2.62,12.08,4.16c5.39,2.09,10.7,4.36,16.05,6.53
		c2.55,1.04,5.07,2.17,7.69,3.03c2.93,0.96,4.89,0,6.55-2.82c1.52-2.59,1.24-4.4-1.14-6.59c-0.8-0.74-1.71-1.42-2.68-1.93
		c-10.78-5.67-22-10.35-33.83-13.18c-11.56-2.77-23.37-4.13-35.31-3.73c-3.04,0-6.08-0.11-9.11,0.03c-3.03,0.14-6.08,0.36-9.07,0.85
		c-4.22,0.69-8.43,1.51-12.57,2.53c-3.21,0.79-4.51,3.43-3.93,7.17c0.46,2.96,2.22,4.28,5.67,4.01c3.71-0.29,7.46-0.47,11.12-1.14
		C43.27,193.17,53.06,192.57,62.85,193.17z"/>
	<path class="st1" d="M251.51,224.19c-1.17-0.28-2.46-0.2-3.68-0.06c-7.36,0.84-14.32,3.11-20.88,6.46
		c-12.9,6.59-24.63,14.78-33.66,26.31c-2.19,2.79-4.2,5.89-5.51,9.16c-1.76,4.38,0.13,6.66,4.96,6.63c2.22,0.15,4-0.85,5.39-2.86
		c1.64-2.39,3.36-4.74,5.19-6.98c7.36-9,16.01-16.28,26.88-20.84c6.76-2.84,13.56-5.43,20.73-7c2.8-0.62,4.62-2.8,4.64-5.13
		C255.58,227.4,253.81,224.75,251.51,224.19z"/>
	<path class="st1" d="M99.84,231.22c1.1-1.68,1.09-3.62-0.15-5.04c-1.22-1.39-2.83-2.82-4.54-3.35
		c-10.81-3.35-21.66-6.69-32.31-6.02c-8.1,0-15.27,0.24-22.17,2.69c-3.41,1.21-4.45,2.72-3.9,6.17c0.51,3.21,1.85,4.51,5.39,4.39
		c3.71-0.12,7.42-0.61,11.11-1.09c10.27-1.34,20.34-0.3,30.33,2.21c3.87,0.97,7.81,1.66,11.73,2.37
		C97.35,233.92,98.8,232.82,99.84,231.22z"/>
</g>
</svg>
