<svg id="Capa_1" data-name="Capa 1" xmlns="http://www.w3.org/2000/svg" viewBox="0 0 601 681">
<defs>
<style>
.cls-1{fill:#78b768;} 
.cls-2{fill:#c5de67;}
.cls-3{fill:#b99859;}

</style>
</defs>
<title>
map
</title>


<path class="cls-1" d="M297.88,302.48c2-3.31,2-7.1,1.87-10.9A26.3,26.3,0,0,1,301,283.2c7.05,2.62,14.18,2,21.25,1.19a21.73,21.73,0,0,0,9.56-3.54c1.15-.77,2.33-1.5,3.43-2.33a27.8,27.8,0,0,1,13.4-5.44c5.07-.66,10.16-.92,15.25-1.24a28.91,28.91,0,0,1,5.86.59,12.72,12.72,0,0,0,7.47-1,49.64,49.64,0,0,0,5.4-2.85c3.73-2.33,7.84-3.85,11.86-5.56,2.94-1.25,5.95-2.32,8.9-3.46.39.13.37.45.43.72,1.83,7.32,6.94,11.18,13.87,13.06a5.51,5.51,0,0,0,5.45-1.47,17,17,0,0,0,1.66-1.74,12.11,12.11,0,0,1,4.43-3.48,50,50,0,0,0,5.69-3.25,16.16,16.16,0,0,1,2.71-1.4,5.4,5.4,0,0,1,5.41.49c.83.58,1.69,1.13,2.5,1.75a6.69,6.69,0,0,0,7.19.91,22.55,22.55,0,0,1,3.07-1.12c1.94-.54,2.83.07,3.26,2.07a8.79,8.79,0,0,1,.14,2.4c0,.58-.09,1.16-.17,1.74a12.47,12.47,0,0,0,4.13,11.61c3.17,2.94,6.36,5.78,10.38,7.51a17.13,17.13,0,0,0,11.51,1q5-1.32,9.82-3a14.34,14.34,0,0,1,9.63.3,30,30,0,0,1,7.51,4,14.32,14.32,0,0,0,8.8,2.81,14,14,0,0,1,10.92,4.6,14.19,14.19,0,0,0,4.87,3.26c1.82.75,3.65,1.49,5.51,2.11a14.72,14.72,0,0,1,6.6,4.5c1.18,1.38,2.26,2.86,3.51,4.19.9.95.78,1.6,0,2.58-6.31,7.93-12.37,16.06-18.81,23.88-6.9,8.39-13.87,16.72-21,24.88a49.88,49.88,0,0,1-4.12,4.23c-6.56,5.9-12.86,12.11-19.77,17.59-8.16,6.48-16.14,13.2-25.08,18.64a67.76,67.76,0,0,0-6.24,4.43c-4.32,3.32-9.23,5.53-14.15,7.74-.7.31-1.13.37-1.64-.35-3.29-4.61-7.92-6.11-13.39-5.7-2.18.17-4.37.17-6.55.25a10.16,10.16,0,0,1-6.69-2.28,21.39,21.39,0,0,1-6-7.42c-1-1.88-1.84-3.8-2.74-5.72a31.36,31.36,0,0,0-13.24-14.12,42.39,42.39,0,0,0-8.11-3.78A42.17,42.17,0,0,1,374,372.6,54.15,54.15,0,0,0,360.25,366a52.77,52.77,0,0,0-12.44-2.23,10.21,10.21,0,0,1-5.6-2.2c-2.56-1.95-4.92-4.11-7.32-6.25a27.32,27.32,0,0,1-9.45-18.39,21.2,21.2,0,0,0-2.55-8.52,6.43,6.43,0,0,0-7.1-3.52c-.86.12-1.73.19-2.6.31a3.08,3.08,0,0,1-3.44-2.09A23.77,23.77,0,0,1,308.4,318a46.36,46.36,0,0,0-1.61-6.34c-1.4-4-3.86-7-8-8.44a5.11,5.11,0,0,1-.76-.41C298,302.79,298,302.7,297.88,302.48Z"/>

<path class="cls-1" d="M217.81,493.63a9.1,9.1,0,0,0,1.95-4.63,2.4,2.4,0,0,1,1.17-1.75c2.06-1.4,4.13-2.78,6.64-3.2a7,7,0,0,0,5.66-4.85c.38-1,.84-2,1.24-3a5,5,0,0,1,4-3.39c4.9-.73,7.12-4.12,8.57-8.32,1-3,1.49-6.07,2.24-9.11a9.12,9.12,0,0,1,2.54-4.72,15.56,15.56,0,0,0,3.17-4.16c1.1-2.16.84-3.61-.91-5.28l-.16-.15c-2.8-2.6-2.92-4.3-.5-7.27a10.53,10.53,0,0,1,3.87-2.79c2.51-1.15,5-2.3,7.55-3.43a14,14,0,0,0,2.86-1.58c1.75-1.33,2.78-3,2.28-5.29a5.34,5.34,0,0,0-4.39-4.07,5.77,5.77,0,0,0-4.05.45,20.67,20.67,0,0,1-2.57,1.2,3.49,3.49,0,0,1-4.26-1.25c-.53-.7-.69-1.28.21-1.78.7-.39,1.37-.83,2.09-1.19a17.75,17.75,0,0,0,5.14-3.65,9.72,9.72,0,0,0,2.62-8.65,6.2,6.2,0,0,0-5.08-5.33,16.07,16.07,0,0,1-3-.79c-2.09-.95-2.54-2-1.69-4.19a7.24,7.24,0,0,1,2.1-2.76c1-.86,2-1.67,3-2.52a5.68,5.68,0,0,0,2-6.26,11.87,11.87,0,0,1-.63-3.21,2.42,2.42,0,0,1,1.64-2.54c.47-.18.95-.37,1.41-.57,3.06-1.38,4-2.91,3.57-6.19a37.38,37.38,0,0,0-2.8-11,4.49,4.49,0,0,1,.64-5.06c.74-1,1.58-1.91,2.4-2.84a9,9,0,0,0,.31-11.64,20.6,20.6,0,0,1-1.67-2.29,3.26,3.26,0,0,1,.76-4.66,17.08,17.08,0,0,1,2.75-1.75,9.8,9.8,0,0,0,5.5-9.24c0-1.83-.2-3.64-.34-5.45-.07-.78.15-1.26,1-1.35a13,13,0,0,0,5.45-2.13,2.93,2.93,0,0,1,2.86-.22,7.63,7.63,0,0,0,8.77-2.06c.36-.37.69-.76,1-1.14,1.68-1.83,1.67-1.82,3.69-.52a12.07,12.07,0,0,1,4.58,5.43,39.35,39.35,0,0,1,2.28,8.19,20.72,20.72,0,0,0,1.4,4.81c1.36,2.91,3.2,4,6.42,3.87,1.16-.05,2.33-.1,3.49-.24a3.25,3.25,0,0,1,3.52,2,18.24,18.24,0,0,1,2.2,7.72c.57,8.47,4.6,15,10.84,20.47,1.76,1.53,3.45,3.14,5.25,4.62a16.62,16.62,0,0,0,10.16,4c8.84.39,16.76,3.64,24,8.59a51.56,51.56,0,0,0,12.24,6.18,37.57,37.57,0,0,1,9.21,4.95,26.33,26.33,0,0,1,8.84,10.63c.77,1.65,1.54,3.3,2.23,5a27.25,27.25,0,0,0,5.31,8,14.14,14.14,0,0,0,10.69,4.68c2.78,0,5.52-.37,8.29-.44a10.54,10.54,0,0,1,8.49,3.76,1,1,0,0,1,.39.78c-.22.4-.69.48-1.07.59-11.37,3.45-22.25,8.23-33.37,12.35-8.53,3.17-17.11,6.2-25.57,9.56-5.28,2.1-10.87,3.29-16.32,4.87-7.13,2.06-14.34,3.89-21.37,6.25a63.88,63.88,0,0,0-26.1,16.26c-1.11,1.15-2.19,2.35-3.4,3.39a89.3,89.3,0,0,0-13.7,15.55c-2.18,3-3.71,6.19-3.57,10.08.1,3.05-1.14,5.83-2.59,8.48a4.35,4.35,0,0,1-.49.72c-.7.83-1.46,1.92-2.61,1.65s-1.23-1.52-1.53-2.49c-.17-.55-.27-1.13-.43-1.69a5.92,5.92,0,0,0-7.15-4.16,8.29,8.29,0,0,0-5.13,3.81,16.57,16.57,0,0,0-1.95,4.61c-.19.69-.46,1.15-1.34,1.05-3.78-.44-7.39.47-11,1.55a9.77,9.77,0,0,1-5.79.21,11,11,0,0,0-3.24-.41c-3.24.08-6.16.77-8,3.89a4,4,0,0,1-5.08,1.86,29.89,29.89,0,0,0-3.45-.56,14.48,14.48,0,0,1-6.34-3.27,4.41,4.41,0,0,1-1.39-2.66,8.08,8.08,0,0,1-.17-2c.11-4.44-1.76-8-4.78-11.12C220.17,496.16,219,494.93,217.81,493.63Z"/>

<path class="cls-1" d="M554.86,312a62.46,62.46,0,0,0-4.38-5.31,18.93,18.93,0,0,0-8.11-4.95c-1-.29-2-.6-2.92-.92a10.3,10.3,0,0,1-4.41-2.72,28.3,28.3,0,0,0-2.73-2.52c-2.54-2.09-5.33-3.53-8.76-3.4a30.66,30.66,0,0,1-3.7-.25,9.58,9.58,0,0,1-4.69-1.6,38.65,38.65,0,0,0-9.31-4.77,17.52,17.52,0,0,0-11.78-.05c-3.09,1.11-6.26,1.89-9.43,2.74a13.34,13.34,0,0,1-10.49-1.53,27.79,27.79,0,0,1-4.9-3.66c-1.51-1.37-2.94-2.83-4.44-4.21a7.22,7.22,0,0,1-2.48-6.25c.12-1.44,0-2.91.05-4.37a10,10,0,0,0-.65-3.63,4.82,4.82,0,0,0-5.78-3.12,27.18,27.18,0,0,0-3.72,1.27,5,5,0,0,1-4.79-.36c-.88-.53-1.79-1-2.63-1.58a7.56,7.56,0,0,0-8.1-.46c-3.87,2-7.6,4.29-11.34,6.53a12,12,0,0,0-2.8,2.75,3.87,3.87,0,0,1-4.26,1.43,15.39,15.39,0,0,1-11.14-9.24c-.23-.53-.37-1.11-.63-1.63-.53-1-.65-1.84.66-2.44a2.89,2.89,0,0,0,1.48-2.51c.63-4.66-.79-7.15-5.18-8.85a44.49,44.49,0,0,0-5-1.44c-2.19-.55-2.56-1.11-2.39-3.41.1-1.24.28-2.47.34-3.7a13.49,13.49,0,0,0-.09-2.62c-.38-2.57-1.86-3.62-4.45-3.29a6.28,6.28,0,0,0-2.77,1.21,36.81,36.81,0,0,0-5.89,5.19c-5.58,5.84-12.65,9-20.29,11a10.35,10.35,0,0,1-5.83-.18c-2-.65-2.69-1.72-2.29-3.81a16.22,16.22,0,0,1,1.63-4,20.21,20.21,0,0,0,2.52-7.17c.25-3,.43-6,.54-8.94a8.88,8.88,0,0,0-1.26-4.8c-1.53-2.73-2.55-5.72-4.21-8.39a2.58,2.58,0,0,1-.11-2.88,2.48,2.48,0,0,1,3.11-1.31,10.22,10.22,0,0,1,2.91,1.47,24.88,24.88,0,0,0,4.23,2.26,8.31,8.31,0,0,0,8.08-1.07,13.93,13.93,0,0,0,5.19-6.34,11.49,11.49,0,0,1,4.32-5.85,14.38,14.38,0,0,0,4-4.84,9.24,9.24,0,0,0,.84-6.78,4,4,0,0,0-.25-.83c-2-4.22-2.37-8.81-3.19-13.31a3.56,3.56,0,0,1,2.8-4,22,22,0,0,1,9.51.69c2.62.64,5.21,1.38,7.88,1.76a14,14,0,0,0,8.11-1.1,14.47,14.47,0,0,1,3.46-1.3c3.73-.71,6.69.82,9.28,3.28a23.23,23.23,0,0,1,2.42,2.82c3.85,5,8.16,9.7,11.56,15.08a50.61,50.61,0,0,0,6.51,8.49c2.9,3,6.21,5,10.55,5,3.11,0,5.76,1.42,8.31,3,1.43.88,2.81,1.83,4.2,2.76,5.28,3.51,10.57,3.11,15.85.06.88-.51,1.71-1.12,2.54-1.71,3.87-2.71,8.28-3,12.77-2.71a6.23,6.23,0,0,1,3.54,1.56c1.87,1.52,3.56,3.23,5.31,4.89a22.09,22.09,0,0,0,6.17,4.45c2.23,1,4.54,1.48,6.62-.17s2.42-4.06,2-6.56c-.26-1.5-.68-3-1-4.47-.19-.89.14-1.32,1.1-1.42a45,45,0,0,1,8.29.21,3.23,3.23,0,0,1,1.72.9c.9.74,1.81,1.47,2.68,2.24a12.72,12.72,0,0,0,9.9,3.17c1.31-.11,2.62-.14,3.93-.16a11.35,11.35,0,0,1,7.39,2.22,34.84,34.84,0,0,0,11.93,5.77c5.38,1.51,10.13,4.42,15.26,6.46,2.54,1,3.54,2.3,3.33,5.07-.24,3.12.76,6.2,1.08,9.31a60,60,0,0,0,2.14,10.47,11.84,11.84,0,0,1,.28,4.55A1.74,1.74,0,0,1,589,254.8a21.43,21.43,0,0,1-6.53.31c-3.56-.38-5.8,1.46-7.6,4.12a19.88,19.88,0,0,0-2.63,7.36,185.78,185.78,0,0,1-6.52,24.91c-2.43,6.82-5.34,13.4-9.66,19.27A3.08,3.08,0,0,1,554.86,312Z"/>

<path class="cls-2" d="M149.56,149.25a8,8,0,0,1-1.7,3.23c-2.78,2.83-2.7,6.22-1.55,9.57A26.93,26.93,0,0,0,153.36,173a9.24,9.24,0,0,0,6.16,2.44c.94,0,1.9,0,2.84.05a4.27,4.27,0,0,1,4.34,4.44c.17,3.5.61,7,1,10.44a21.28,21.28,0,0,1,0,5.23,8.7,8.7,0,0,1-2.06,4.51,14.46,14.46,0,0,0-3.51,7.85,14.93,14.93,0,0,1-2.69,7,16.83,16.83,0,0,0-2.94,7.22,6.58,6.58,0,0,1-3.36,5.27c-2.89,1.69-3.9,4.58-3.85,7.85,0,1.09.19,2.18.22,3.27a7.69,7.69,0,0,1-8.29,7.57c-.58-.06-1.16-.11-1.73-.2a4.74,4.74,0,0,0-5.24,2.71,33.7,33.7,0,0,0-3.85,9,9.56,9.56,0,0,1-2.58,4.69c-1.82,1.89-3.7,3.71-5.59,5.53a5.43,5.43,0,0,1-4.32,1.68,23.94,23.94,0,0,0-3.28,0,5.49,5.49,0,0,0-5.31,4.39,13.24,13.24,0,0,0-.43,2.58,11.74,11.74,0,0,1-1.76,5.34,4.48,4.48,0,0,1-2.4,2.13c-1.26.44-2.16,1.45-3.25,2.14-3.68,2.31-6,5.84-8.77,9-.81.94-1.59,1.9-2.33,2.89a10.93,10.93,0,0,0-1.24,11.18,5.1,5.1,0,0,1,.41,1c.19,1,.37,2.08-.51,2.87s-1.64.24-2.46-.07a11.18,11.18,0,0,0-3.61-.79c-1.28,0-2.59.07-3.2,1.39a4,4,0,0,0,.36,4.33,26.14,26.14,0,0,0,2.42,2.52A10.87,10.87,0,0,1,85.2,325c.5,1.45.09,2-1.44,2.2a14,14,0,0,1-3.71-.09,9.24,9.24,0,0,0-5.29.88,20.36,20.36,0,0,0-7.46,5.92A5.35,5.35,0,0,0,66,337.76c.05.8,0,1.61.13,2.4.45,3.26-.62,6.18-2,9-.45,1-1,1-1.91.56A12.92,12.92,0,0,1,55.08,342a64.34,64.34,0,0,1-1.79-7,12.76,12.76,0,0,0-6.5-8.86,6.85,6.85,0,0,0-5.86-.76,9.25,9.25,0,0,1-4.92.36c-2.16-.4-4.31-.39-6.25,1.09-1.18.91-1.35.73-2.11-.63a7.28,7.28,0,0,1-.23-6.34c1.45-4,2.68-8,4.34-11.89a39.51,39.51,0,0,0,3-10.24A11.35,11.35,0,0,0,33.18,290c-1.42-2.29-2.93-4.53-4.44-6.76a45,45,0,0,1-4.57-7.94,19.27,19.27,0,0,1-1.58-7.21,6.3,6.3,0,0,1,4.22-6.28,12.69,12.69,0,0,1,4.69-.89,54.12,54.12,0,0,0,11.27-1.31,10.07,10.07,0,0,0,6.08-4,16.16,16.16,0,0,1,1.37-1.7c5.62-5.77,8.12-13,9.68-20.67.72-3.57,2.85-6.33,5-9.12.75-1,1.64-1.86,2.42-2.81a6,6,0,0,0,1-6.72c-1.69-3.79-3.14-7.68-4.67-11.53-.79-2-.61-3.43.92-4.88a39.77,39.77,0,0,0,3-3.45,12.15,12.15,0,0,0,2.74-5.65A6.75,6.75,0,0,1,74,184.21l6.11-3.39a36.63,36.63,0,0,0,8.33-6.32c4.56-4.61,9.18-9.14,13.31-14.18,4-4.81,5.48-10.32,6.31-16.23a92.15,92.15,0,0,0,.53-9.38c.07-1.71.09-1.69,1.78-1.43.86.12,1.74.16,2.6.27a8.79,8.79,0,0,0,7.85-3,6,6,0,0,1,6.18-1.74,29.56,29.56,0,0,0,5,.66,11.7,11.7,0,0,1,6.68,2.94,3.36,3.36,0,0,1,1,3.19,11.63,11.63,0,0,1-1.19,3.49,4.3,4.3,0,0,0,1.12,5.52,14.17,14.17,0,0,0,4.87,2.86C146.08,148.1,147.74,148.62,149.56,149.25Z"/>

<path class="cls-1" d="M587,220.33a8.11,8.11,0,0,1-2.85-1,88.2,88.2,0,0,0-14-5.43A41.88,41.88,0,0,1,559.12,209a17.81,17.81,0,0,0-11.2-3c-1,.08-2,.05-3.06.05a11.6,11.6,0,0,1-6.76-2.16c-1.07-.76-2.09-1.59-3.15-2.36a9.06,9.06,0,0,0-5.24-2c-2.26-.05-4.52,0-6.78,0a6.36,6.36,0,0,0-2.15.34c-1.86.61-2.62,1.71-2.28,3.64a21.43,21.43,0,0,0,1.13,4.44,8.18,8.18,0,0,1,.5,1.44,3.29,3.29,0,0,1-.9,3.42c-.88.71-2,.21-2.91-.14a14.25,14.25,0,0,1-4.65-3.21c-2.19-2-4.5-3.92-6.8-5.83a10.32,10.32,0,0,0-6-2.38c-5.31-.42-10.3.51-14.7,3.73a17.59,17.59,0,0,1-1.87,1.14,10.69,10.69,0,0,1-11.59-.15c-1.55-1-3.08-2-4.57-3a22.39,22.39,0,0,0-11.54-4.26,7.47,7.47,0,0,1-4.31-1.88,38.24,38.24,0,0,1-7.71-8.88c-4.2-6.42-9.25-12.17-14.29-17.93a18.08,18.08,0,0,0-5.54-4.19,11.92,11.92,0,0,0-10.13-.67c-.54.21-1.1.39-1.64.6a17.15,17.15,0,0,1-10.5.71,83.06,83.06,0,0,0-9-1.78,16.09,16.09,0,0,0-7.75.83,4.73,4.73,0,0,0-3.08,2.88,4,4,0,0,1-3.66,3c-2.15.25-4.23.33-6-1.15a4.15,4.15,0,0,1-1.32-2.45c-.31-1.43-.52-2.88-.94-4.27-1.1-3.64-4.08-4.78-7.36-2.83a18.13,18.13,0,0,0-4.32,3.67c-2.27,2.59-5.13,3.2-8.33,2.72a23.49,23.49,0,0,1-10.62-4.32,6.53,6.53,0,0,1-2.66-3.62,7,7,0,0,0-3.39-4.37,15,15,0,0,1-2.69-1.86,11.81,11.81,0,0,0-7.67-3.24c-2.06-.14-2.93-1.22-3.21-3.22a2.78,2.78,0,0,1,1.44-3.15c3.48-1.73,5.73-4.91,8.69-7.26a10.19,10.19,0,0,0,3.75-6c.39-1.84,1.63-3.25,2.67-4.71a8.91,8.91,0,0,0,1.69-6,9.63,9.63,0,0,1,2.18-6.69,23.78,23.78,0,0,1,3.46-3.63,10.44,10.44,0,0,0,3.72-8.08l0-.87c.11-2.07.18-2.13,2.35-2.11.87,0,1.75.08,2.62.06a12.41,12.41,0,0,0,7.6-2.3c.8-.62,1.3-.38,1.82.29a9.4,9.4,0,0,1,1.71,5.54c.16,3.64.27,7.28.42,10.92a12.26,12.26,0,0,0,2.25,7c1.7,2.3,3.73,3.9,6.85,3.13a3.12,3.12,0,0,1,2.11.36c1,.47,2,.87,3,1.4,4.5,2.46,9.09,2.3,13.69.41a12,12,0,0,1,5.1-1,6.5,6.5,0,0,1,5.12,2.51c.46.56.9,1.14,1.36,1.71a6.93,6.93,0,0,0,5.47,2.78,13.4,13.4,0,0,1,5.63,1.53c2.17,1,4.29,2.2,6.5,3.13,4.52,1.89,9.05,2.33,13.78.44,5.26-2.09,10.7-1.88,16.12-.49a65.55,65.55,0,0,0,8.76,1.84c3.81.45,7.56.32,11.05-1.6,1.89-1.05,3.18-2.42,3.26-4.76a15.91,15.91,0,0,1,.76-4.73,8.29,8.29,0,0,1,3.09-4.39c1.69-1.14,3.43-2.2,5.15-3.28a2.89,2.89,0,0,1,2.53-.16c5.55,1.74,11.16,3.3,16.63,5.32a23.28,23.28,0,0,1,8.94,6.08,91.31,91.31,0,0,1,9.44,12,40.63,40.63,0,0,0,10.59,10.93,23.83,23.83,0,0,0,11.74,4.38,63.9,63.9,0,0,1,19,4.78,177.61,177.61,0,0,0,20.18,6.37,11,11,0,0,1,2.26.79c1,.52,1,1.43.05,2a7,7,0,0,1-2.86,1,53.17,53.17,0,0,1-11.33.77,5.74,5.74,0,0,0-5.63,8.5c2.76,5.46,4.87,11.23,8.06,16.47a22.14,22.14,0,0,0,6.7,7.09c4.8,3.19,7.14,8.11,9,13.3A3.23,3.23,0,0,1,587,220.33Z"/>

<path class="cls-2" d="M169.12,53.47c2.44.15,4.77.32,7.1.44a19.38,19.38,0,0,0,9.16-1.63c1.59-.71,3.27-1.22,4.9-1.86a32.65,32.65,0,0,0,12.3-8.12,16.8,16.8,0,0,1,8-5.13,5.52,5.52,0,0,0,4-4,7.26,7.26,0,0,1,2.76-3.8,12.54,12.54,0,0,0,5-7.2,13.58,13.58,0,0,1,3-5.32,5.52,5.52,0,0,1,2-1.63,1.51,1.51,0,0,1,2,.26c2.32,2.93,5.66,4.55,8.49,6.81a46.08,46.08,0,0,1,5.56,5.87,46.24,46.24,0,0,0,8.55,8.1,17.85,17.85,0,0,0,5.24,2.65,1.93,1.93,0,0,1,1.68,1.92c.2,2.47.91,4.86,1,7.35a4.15,4.15,0,0,1-2.25,4.16l-.38.22c-3.49,2.11-4.43,4.31-3.21,8.24a21.57,21.57,0,0,0,10.28,13.06c1.68.93,1.6,1,.9,2.66a4.58,4.58,0,0,1-4.94,3.1c-2.78-.12-3.93.81-4.52,3.1a3.83,3.83,0,0,0,.51,3.13,3.6,3.6,0,0,0,1,1.15c2.85,1.81,4.35,4.59,5.69,7.55a22.91,22.91,0,0,0,2.21,3.24,6.78,6.78,0,0,1,1.43,3.6,2.79,2.79,0,0,1-2.6,3.18,6.52,6.52,0,0,1-1.53.08,8,8,0,0,0-6.11,2.4,28.58,28.58,0,0,0-6.43,8c-.6,1.12-1.05,2.58-2.46,2.9-1.9.44-3.86.94-5.81.21a29.41,29.41,0,0,1-3.6-1.56,11.54,11.54,0,0,0-8.9-.75,37.11,37.11,0,0,0-7.28,2.94c-2.46,1.27-5,2.3-7.57,3.39a17.76,17.76,0,0,1-11.09,1.14,63.41,63.41,0,0,0-14.36-1.15,12.8,12.8,0,0,0-3,.43,5.37,5.37,0,0,0-3.86,2.94,7.67,7.67,0,0,1-3.09,3.29,28.62,28.62,0,0,0-2.83,2c-2.89,2.42-3.41,5-1.59,8.34a6.64,6.64,0,0,1,1,5c-.86,3.61-3.14,5.25-6.87,4.79a17,17,0,0,1-3-.56c-3.7-1.16-7.55-1.52-11.36-2.12a43.14,43.14,0,0,1-10.76-3.49c-1.86-.82-2-1.27-1.34-3.2a18.08,18.08,0,0,0,1-4.24,6,6,0,0,0-2.55-5.72c-2.93-2.1-6-3.85-9.84-3.59a12.55,12.55,0,0,1-3.65-.64c-3-.67-5.64-.23-7.83,2.07-.35.37-.75.69-1.13,1a5.19,5.19,0,0,1-4.61,1.46c-.36-.06-.73-.06-1.09-.12-3.34-.54-3.34-.54-2.31-3.81.13-.41.22-.84.33-1.27.77-2.76.34-5.23-1.91-7.14a2.46,2.46,0,0,1-.79-2.92c.3-1,.66-1.93,1-2.9A16.69,16.69,0,0,0,109,103a12.08,12.08,0,0,0-1.63-3.8,44.75,44.75,0,0,1-4-8.24,11,11,0,0,1-.82-4.7,8.16,8.16,0,0,1,6.58-7.19,22.65,22.65,0,0,1,4.58-.2,13.46,13.46,0,0,0,6.92-1.68c3.39-1.87,6.88-3.65,9.28-6.8A16.62,16.62,0,0,1,141,64a41.62,41.62,0,0,0,18.35-7.7A15.45,15.45,0,0,1,169.12,53.47Z"/>

<path class="cls-2" d="M56.29,411.35c1.66-1,3.09-1.88,4.49-2.79a9.44,9.44,0,0,0,4.5-8.49,3.88,3.88,0,0,1,2.67-4,10.58,10.58,0,0,1,5.33-.94c3.44.31,6.48-1,9.39-2.46a6.2,6.2,0,0,0,3.53-5.2,7.65,7.65,0,0,1,1.1-3.5,7.73,7.73,0,0,0,1.11-4.18,78.33,78.33,0,0,0-1.16-11.73,6.75,6.75,0,0,0-4-5.17c-3.27-1.6-6.42-3.47-10.06-4.17a4.72,4.72,0,0,1-2.3-1.21c-1.46-1.32-2.92-2.64-4.4-3.93a1.74,1.74,0,0,1-.48-2.47c1.93-3.66,3.14-7.53,2.65-11.75a5.49,5.49,0,0,1,2-5,25,25,0,0,1,3.78-3A8.63,8.63,0,0,1,81,330.09a8.55,8.55,0,0,0,3.9-.18A3.62,3.62,0,0,0,88,325.59a11.17,11.17,0,0,0-3.13-6.36c-.79-.86-1.66-1.63-2.51-2.43-.56-.53-1.08-1.13-.6-1.89s1.21-.4,1.82-.27a16.35,16.35,0,0,1,2.27.76,3.94,3.94,0,0,0,4.48-.65,4.77,4.77,0,0,0,1.36-4.61,10,10,0,0,0-.73-2.05,8.56,8.56,0,0,1,.88-8.72,37.78,37.78,0,0,1,2.88-3.57,33.84,33.84,0,0,0,3.17-3.89,5,5,0,0,1,1.68-1.7c2.4-1.37,4.33-3.47,7-4.41a4.25,4.25,0,0,0,2.07-1.88,13.19,13.19,0,0,0,2.51-7.11,7,7,0,0,1,.18-1.51c.54-2.46,1.4-3.17,3.91-3.23a5.68,5.68,0,0,1,1.09,0c3.23.52,5.78-.63,8.09-2.88q3.12-3.06,6.12-6.24a8.7,8.7,0,0,0,2.1-4.26,27.9,27.9,0,0,1,3-7.69c1.29-2.37,1.72-2.63,4.3-2,4.48,1.14,7.66-1,10.31-4.14.94-1.11,1.65-1.51,3-1.21,2.63.55,4,1.83,4.33,4.47a8.32,8.32,0,0,1,0,2.39c-.49,2.88-.94,5.75-1.46,8.62a4.51,4.51,0,0,1-3.63,3.92A22.1,22.1,0,0,0,140,270.93a11.82,11.82,0,0,1-1.63,1.45,13.93,13.93,0,0,0-5.32,9,26.78,26.78,0,0,1-7.26,14.66A19.32,19.32,0,0,0,120,309.53,37.43,37.43,0,0,0,121.16,321a14.61,14.61,0,0,0,4.37,6.93,41,41,0,0,0,6.67,4.94,9.33,9.33,0,0,1,4.27,5.32c.52,1.51.93,3.07,1.36,4.61a23.79,23.79,0,0,0,2.55,6,8.46,8.46,0,0,0,6.67,4,3.92,3.92,0,0,0,3.67-1.49,4.43,4.43,0,0,0,.54-.69c1.32-2.41,3.37-2.6,5.82-2.14a11.76,11.76,0,0,1,6.8,4c3.68,4.15,7.16,8.45,10.59,12.8a29.21,29.21,0,0,0,2.66,2.9,7.24,7.24,0,0,0,7.18,2.17,3.79,3.79,0,0,1,4.14,1.21,4.32,4.32,0,0,0,5,1.22l1.25-.4c2-.64,2.51-.34,2.94,1.76a5.9,5.9,0,0,1,0,2.61c-.63,2.39-1.34,4.77-2,7.14a3.44,3.44,0,0,1-1.65,2,9.69,9.69,0,0,1-5,1.48,11,11,0,0,0-6.74,2.16,10.87,10.87,0,0,1-6.71,2.27,26.06,26.06,0,0,1-2.62.19,7.14,7.14,0,0,0-7.79,4.34c-.73,1.47-2.1,2.42-3.27,3.5a17.51,17.51,0,0,0-4.15,5c-1,2-.91,3.75.36,5.08a4.24,4.24,0,0,0,5,1c1.21-.47,2.49-.8,3.73-1.22a1.58,1.58,0,0,1,2,.7,13.74,13.74,0,0,1,2.38,4.87c.53,2.42,0,3.78-2.07,5.13a4.53,4.53,0,0,0-2.06,3c-.41,2.16-1.71,2.89-3.8,3.1-3.13.32-5.5,2.19-7.46,4.54a5.57,5.57,0,0,0-1,3.06,22.92,22.92,0,0,0,.62,7.38c.2.92.41,1.84.65,2.76a1.73,1.73,0,0,1-.88,2.19,30.14,30.14,0,0,0-3.06,2.1,6.76,6.76,0,0,0-3,5.11,3.4,3.4,0,0,1-2.79,3.21,7.07,7.07,0,0,1-2.37.36c-1.16,0-2.34,0-3.49-.1a6.64,6.64,0,0,0-6.19,2.53c-1.77,2.22-4.38,2.39-6.89,2.81-.66.11-.91-.26-.89-.89a41.17,41.17,0,0,0-.55-7.19,15,15,0,0,1,1.83-9.48,51.54,51.54,0,0,0,4.1-9.87,23.87,23.87,0,0,0,1.09-5.35,6,6,0,0,0-4.09-6.27,11.27,11.27,0,0,0-3.63-.72,49.62,49.62,0,0,0-7.21.26,15.64,15.64,0,0,1-9.34-1.55c-1.77-.92-1.78-.95-1-2.78a7.75,7.75,0,0,0,.59-4.9,7.38,7.38,0,0,0-9.8-5.07,9.53,9.53,0,0,0-3.3,2.1,65.32,65.32,0,0,1-6.78,5.52c-.53.39-1,.81-1.53,1.24-2.32,2-3.69,4.48-3.35,7.68a4.6,4.6,0,0,1-.94,3.69,1.15,1.15,0,0,1-1.48.47A16,16,0,0,1,78,427.73,21.19,21.19,0,0,0,72.35,425a18.87,18.87,0,0,1-8.11-5C61.46,417.33,59,414.35,56.29,411.35Z"/>

<path class="cls-1" d="M364.32,163.74a9.52,9.52,0,0,1,1,3.54c.8,5.57,5.1,8.82,10.7,8,1.15-.16,2.28-.44,3.35-.65a.7.7,0,0,1,.37.77,20.86,20.86,0,0,0,1.88,9.33c1.78,4.18,1.1,6.83-2.58,10.37a19.12,19.12,0,0,0-4.66,6.21,11.45,11.45,0,0,1-3.36,4.53c-2.25,1.78-3.7,1.91-6.2.5-1-.57-2-1.22-3-1.82a14.64,14.64,0,0,0-3.35-1.57,6.26,6.26,0,0,0-7.07,2.16c-1.85,2.21-2.7,4.79-1.07,7.46,1.8,2.92,2.91,6.19,4.79,9.06a4.59,4.59,0,0,1,.65,2.72c0,2.19-.05,4.38-.19,6.56a16.64,16.64,0,0,1-1.69,6.73,22.78,22.78,0,0,0-2.4,7,5.56,5.56,0,0,0,3.61,6.48,14.49,14.49,0,0,0,10.07.24,45.44,45.44,0,0,0,19.33-11.47,53.07,53.07,0,0,1,5.54-5c1-.75,2.08-1.77,3.32-1.07s.84,2.24.71,3.42a42.39,42.39,0,0,0-.42,4.35c0,2.93.92,4.24,3.66,5.21,2,.71,4.08,1.08,6,2,2.6,1.23,3.32,2.62,2.87,5.41a2.23,2.23,0,0,1-1.11,1.73,21.45,21.45,0,0,1-4.74,2.18,90.67,90.67,0,0,0-19.28,8.11c-.63.36-1.27.7-1.9,1.08a14.71,14.71,0,0,1-10.47,1.92c-4-.68-8.15-.33-12.22,0-3.63.27-7.25.55-10.86,1.14a21.79,21.79,0,0,0-8.18,2.87c-1.91,1.2-3.87,2.35-5.68,3.68a25.19,25.19,0,0,1-15.34,4.87c-2.48,0-5,0-7.43,0a13.54,13.54,0,0,1-9.55-3.67c-.87-.78-1.64-1.67-2.53-2.42-3.5-2.93-7.3-4.15-11.69-2a10.09,10.09,0,0,1-3.07,1.11c-3.41.44-5.48-1.73-4.79-5.07.15-.71.38-1.41.57-2.11a7.08,7.08,0,0,0-3-8.4,10.31,10.31,0,0,0-1.68-1,1.3,1.3,0,0,1-.82-1.56,14.89,14.89,0,0,0-.74-6.25,7.23,7.23,0,0,1,1.52-7.32c2.24-2.64,2.21-5.74,1.29-8.9a13.79,13.79,0,0,0-1.83-3.95c-.57-.83-.52-1.35.39-1.93a26.39,26.39,0,0,0,5.1-4.09,15.18,15.18,0,0,0,2.79-3.9,74,74,0,0,1,5.16-8.87c2.28-3.42,3.76-7.05,3.36-11.27a7.23,7.23,0,0,1,1-4.4,19.73,19.73,0,0,0,2.7-11.31,14.87,14.87,0,0,1,.12-2.83c.54-3.76,4.12-6,7.57-4.44,4.11,1.86,7.32.65,10.3-2.22a18,18,0,0,0,3.29-4.34,13.68,13.68,0,0,1,5.33-5.34q3.12-1.8,6.21-3.67a16.79,16.79,0,0,0,3.44-2.67c.67-.71,1.12-.48,1.48.27a4.74,4.74,0,0,1,.27.83,11.8,11.8,0,0,0,5.78,7.1,28.18,28.18,0,0,0,14.35,4,10.08,10.08,0,0,0,7.63-3.16C360.57,166.49,362,164.72,364.32,163.74Z"/>

<path class="cls-3" d="M165.59,634.86a8.55,8.55,0,0,1-.69-3.67c0-2.63,0-5.25,0-7.88.07-3.14-.95-5.64-3.74-7.39a26.06,26.06,0,0,1-6.25-5.75,13.62,13.62,0,0,0-9.71-5.27,11.67,11.67,0,0,0-4.52.5,12.14,12.14,0,0,1-11.56-2,20.63,20.63,0,0,0-9.31-4.08,18.52,18.52,0,0,1-7.23-2.92c-3.35-2.2-6.8-4.26-10.83-5a17.57,17.57,0,0,0-8.22.17,9.58,9.58,0,0,0-5.7,3.79,22.64,22.64,0,0,1-6.7,6.19c-1.34.87-2.59,1.89-4,2.73-5.28,3.26-8.64,1-9.85-4.8a3.88,3.88,0,0,1,1-3.23c1.18-1.49,2.39-2.94,3.6-4.4A31.8,31.8,0,0,0,74.88,588a6.27,6.27,0,0,0-3.48-9.09c-.89-.31-1.83-.49-2.74-.74a2.52,2.52,0,0,1-1.94-1.88c-.63-2.77-1.77-5.4-2.16-8.24a7.07,7.07,0,0,1-.06-2c.4-2.82,1.75-4.09,4.62-4.28a19.6,19.6,0,0,1,4.76.55c1,.18,2,.45,3,.61a10.44,10.44,0,0,0,7.93-1.56,75.81,75.81,0,0,0,6.37-4.61,19.77,19.77,0,0,0,5.66-7.13,1.47,1.47,0,0,1,1.83-1,31,31,0,0,0,6.09.24,18.48,18.48,0,0,0,9.25-3c1-.63,2-1.21,2.92-1.92a5.1,5.1,0,0,1,5-.72c.69.22,1.4.41,2.09.63,5.26,1.65,10.36,1,15.38-1a6.35,6.35,0,0,0,3.41-3.18c1.56-3.1,3.88-3.5,6.52-1.24.71.62,1.36,1.32,2.05,2a9.88,9.88,0,0,0,9,2.82c2.07-.41,4.18-.55,6.22-1.14,5-1.43,7-4,7-9.19a6.1,6.1,0,0,1,.85-3.08c1.76-3.08,1.27-5.67-1.38-8s-4.9-2.68-8.2-1a13.32,13.32,0,0,1-2.16,1c-1.17.36-1.76,0-1.64-1.24.32-3.25.57-6.54,2.31-9.46.08-.13.13-.26.22-.38,3.06-4,3-8.35,1.72-12.9l-.42-1.47c-.14-.52,0-.89.58-1,3.08-.36,6.16-1.26,9.28-.09,2,.75,2.41,1.21,2.42,3.33,0,1.38-.06,2.77-.09,4.15a7.51,7.51,0,0,0,.68,3.4,4.79,4.79,0,0,0,6.52,2.61c1-.42,2-.95,3-1.34,3.13-1.2,5-.46,6.42,2.53a10.63,10.63,0,0,1,.91,3.8c.07.8.06,1.61.13,2.4.36,4.13.86,5,4.15,7.17a16.47,16.47,0,0,1-4.06,4.18c-.64.48-1.36.87-2,1.4-2.25,2.06-3.4,4.51-2.61,7.62a18,18,0,0,0,2.72,6.16,24,24,0,0,1,2.38,3.91,6,6,0,0,1,.19,4.88,23,23,0,0,0-2,10.65,6.56,6.56,0,0,1-.51,2.55,26.34,26.34,0,0,0-.91,3.38,6.41,6.41,0,0,0,1.23,5.37,25.88,25.88,0,0,0,2.47,2.76,9,9,0,0,1,3,6.15,58.31,58.31,0,0,1-.6,14.81c-.8,3.93-3.37,6.7-6.3,9.18a3.57,3.57,0,0,1-2.9.65c-1.44-.18-2.9-.28-4.35-.42a6.12,6.12,0,0,0-6.23,3.17,7.36,7.36,0,0,0-1.33,3.89,17.35,17.35,0,0,1-2.76,9.08c-2.27,4-4.53,8-7.74,11.33A1.71,1.71,0,0,1,165.59,634.86Z"/>

<path class="cls-1" d="M202.22,586.1a38.78,38.78,0,0,0-.37-5.63,10.73,10.73,0,0,0-3.79-6.45c-.33-.29-.66-.58-1-.85a5,5,0,0,1-1.57-6.28,16.31,16.31,0,0,0,1.12-6.4,12.71,12.71,0,0,1,.86-4.71c.45-1.15.83-2.33,1.23-3.5a8.94,8.94,0,0,0-.36-6.81,24,24,0,0,0-2.33-3.94,17.55,17.55,0,0,1-2.38-5.36,3.5,3.5,0,0,1,1-3.77c.67-.65,1.48-1.17,2.22-1.76a12.9,12.9,0,0,0,4.38-6.37,1.8,1.8,0,0,1,1.23-1.31c2.83-1.12,3.33-2,3.26-4.9a35.28,35.28,0,0,1,.11-3.71,21.48,21.48,0,0,0-.29-6.3,9.26,9.26,0,0,1,2.72-8.78c1.75-1.81,4-2.83,6.22-4,.59-.32.92-.1,1.28.35,1.67,2.11,3.51,4.09,5.12,6.26a12.17,12.17,0,0,1,2.09,6.57c.3,4.09,2.54,6.58,6,8.46s6.93,2.09,10.55,2.44a4.44,4.44,0,0,0,2.85-1,7.78,7.78,0,0,0,2.45-2.46c1.15-2,2.93-2.47,5-2.47a10.77,10.77,0,0,1,3.66.51,9.84,9.84,0,0,0,6.43-.06c1.54-.45,3.08-.9,4.63-1.29a11,11,0,0,1,4.78-.06c1.6.3,1.73.43,1.4,2a42,42,0,0,0-1,6.47c-.3,5.26-2.4,9.85-5,14.27-2.76,4.63-5.07,9.51-8.07,14a21.69,21.69,0,0,0-3.28,10.33c-.67,7.85-3.5,15-7,21.88a16.06,16.06,0,0,0-1.83,7.13c0,1.6,0,3.21.06,4.81.46,8.68-2.33,16.48-6.47,23.92a12.86,12.86,0,0,1-3.94,4.33c-1.14.78-2.26,1.6-3.38,2.41a22.22,22.22,0,0,0-6.66,7.72c-.53,1-1.08,2.06-1.56,3.12a33.49,33.49,0,0,1-5.35,8.22,30.58,30.58,0,0,0-6.16,9.73,21.27,21.27,0,0,1-3.1,5,2.41,2.41,0,0,1-1.83,1,7.69,7.69,0,0,1-2.83-.06c-4.67-1.16-9.41-2-14.11-3a29.65,29.65,0,0,1-5.84-1.79c-6.52-2.88-11.45-7.65-15.45-13.43-1.16-1.68-1.08-1.85.31-3.35a61.86,61.86,0,0,0,9-13.11c1.56-2.93,2.74-6,2.44-9.38a7.3,7.3,0,0,1,.13-1.74c.48-2.72,2.08-4,4.84-4a9.65,9.65,0,0,1,2.79.46,6.46,6.46,0,0,0,6.69-1.58c4.3-4,7.47-8.51,7.64-14.69C201.82,591,202.16,588.68,202.22,586.1Z"/>

<path class="cls-3" d="M327.46,156.93a12.36,12.36,0,0,1-2.67,1.83c-2.68,1.63-5.34,3.28-8,4.86a12.6,12.6,0,0,0-4.86,5.19,16,16,0,0,1-4.73,5.64,3.93,3.93,0,0,1-4.29.54c-.27-.13-.55-.22-.81-.33-7.3-3.06-12.52,3.64-12.28,8.93A19.79,19.79,0,0,1,287,195.3a6.51,6.51,0,0,0-.89,4.22c.5,4.47-1.12,8.27-3.49,11.89a65,65,0,0,0-4.16,7.43c-1.76,3.71-5,6-8.37,8.08a1.33,1.33,0,0,1-1.76-.29,11.8,11.8,0,0,1-2.39-3.1,17,17,0,0,0-3.33-4.3c-2.27-2-4.71-2.86-7.83-1.84-2.49.81-5,1.46-7.2,3-1.77,1.22-5.28.54-6.94-1a1.67,1.67,0,0,1-.4-1.39,14.3,14.3,0,0,0-.46-4.11,4.14,4.14,0,0,0-3.36-3,21.9,21.9,0,0,0-3.7-.3c-4.09-.1-6.44-2.46-7.12-5.56-.41-1.84-1.15-3.6-1.73-5.4a20.87,20.87,0,0,1-.71-2.29c-.38-1.88-.2-2.25,1.51-3.07,2.3-1.09,4.63-2.13,6.93-3.22a14.59,14.59,0,0,0,4.13-2.83c3-3,2.91-6.49-.11-9.41a20.76,20.76,0,0,0-3-2.15,4.51,4.51,0,0,1-2.15-3.34c-.57-4-2.89-6-6.93-6.11a14.46,14.46,0,0,0-3.48.22,43.68,43.68,0,0,1-15.63.25,12.46,12.46,0,0,1-1.5-.31c-2.56-.69-2.69-.94-2.64-3.63.12-6-1.47-6.6-5.79-7.55a17.34,17.34,0,0,0-2.59-.35,119.74,119.74,0,0,1-12.38-1.32,5.52,5.52,0,0,1-3.48-1.64c-1-1.12-1-1.89,0-3a10,10,0,0,0,2.87-7.76,6.47,6.47,0,0,0-.86-3.12,9,9,0,0,1-.77-1.56,3.45,3.45,0,0,1,1.26-4.44c1.26-1,3-1.62,3.82-2.87,1.57-2.28,3.11-1.62,4.91-.64a18.07,18.07,0,0,0,9.08,2,52.61,52.61,0,0,1,7.42.22,4.44,4.44,0,0,1,3.65,2.08c3.19,5.84,12,6.82,17.32,4.45a17.48,17.48,0,0,1,12.82-.59,21.59,21.59,0,0,0,12.45.54c3.25-.81,6.53-1.5,9.8-2.21a19.65,19.65,0,0,1,7.17-.16,11.79,11.79,0,0,1,5.95,2.57,12.48,12.48,0,0,1,1.8,1.59c3.51,4.33,8.33,6.16,13.56,7.28,3.62.78,7,.61,10.23-1.61,4.59-3.19,9.82-3.31,15.14-2.76.87.09,1.21.43,1,1.44a7.8,7.8,0,0,0,.89,4.86c.94,2,2.43,3.57,4.75,3.73a8.82,8.82,0,0,1,6,3.1C326.67,156.28,327,156.55,327.46,156.93Z"/>

<path class="cls-3" d="M145.35,492.19a10.77,10.77,0,0,1,1.73-3.22c1.21-1.9,2.46-3.78,3.67-5.7a9.61,9.61,0,0,0,.89-8,5,5,0,0,0-2.16-2.94,16,16,0,0,0-6.8-2.8c-3.41-.4-5.48-2.42-6.84-5.41a1.48,1.48,0,0,1,.17-1.77c1.1-1.4,2.28-2.34,4.24-2a21.1,21.1,0,0,0,5.67,0c3.91-.46,5.84-2.33,6.35-6.24a3.73,3.73,0,0,1,1.54-2.76c1.07-.76,2.12-1.54,3.19-2.29,2.31-1.59,2.73-2.66,2-5.39s-1.62-5.13-1.58-7.89a6.3,6.3,0,0,1,6.17-6.5c3.3,0,5.22-1.5,6-4.55a2.68,2.68,0,0,1,1.76-2,4.24,4.24,0,0,0,2.65-3.25,1.53,1.53,0,0,1,1.6-1.41,13.62,13.62,0,0,1,4.13.06c2,.48,2.64,1.29,2.66,3.36a26.27,26.27,0,0,0,.27,5.87,6.15,6.15,0,0,0,2.66,3.84,14.72,14.72,0,0,0,16.44-.05c.84-.58,1.63-1.22,2.49-1.77,1.37-.87,1.65-.82,2.79.4a10.13,10.13,0,0,1,2,3.34c.56,1.42,1,2.87,1.6,4.29a13.61,13.61,0,0,0,4.42,6.13,4.75,4.75,0,0,0,5.32.53c2.17-1,4.37-2,6.6-2.89a11.48,11.48,0,0,0,6.72-6.48,39.5,39.5,0,0,1,2-3.89,5.12,5.12,0,0,1,4-2.72,13.9,13.9,0,0,0,2.13-.45,10.31,10.31,0,0,0,7-6.1,5.28,5.28,0,0,1,1.49-2.11c1.71-1.45,1.68-1.41,3.35.06,2.2,1.94,4.75,1.95,7.38,1.07a24.23,24.23,0,0,0,2.39-1.07,2.44,2.44,0,0,1,2.11,0c2,.85,2.29,2.4.63,3.85a9.08,9.08,0,0,1-2.89,1.51,93,93,0,0,0-8.69,4.1,10.44,10.44,0,0,0-5.26,6.42,5.72,5.72,0,0,0,2.12,6.78c2.06,1.62,2.06,1.78.44,3.89a15.11,15.11,0,0,1-2.5,2.74,7.67,7.67,0,0,0-2.72,4.37c-.6,2.47-1.15,5-1.71,7.44a17.87,17.87,0,0,1-1.77,4.92,7.13,7.13,0,0,1-4.72,3.88,9.71,9.71,0,0,0-7.26,6.6c-.23.62-.48,1.22-.7,1.84a3.84,3.84,0,0,1-3.16,2.66,21.81,21.81,0,0,0-8.45,3.93,4.81,4.81,0,0,0-2.33,3.75,4.19,4.19,0,0,1-2.81,3.78,36.74,36.74,0,0,0-6.06,3.48c-4.49,3.29-6.13,7.78-5.29,13.21a13.63,13.63,0,0,1,.17,4.55,23.35,23.35,0,0,0-.07,4.58c0,.86.17,1.78-1.07,2-1.48.32-2.64,0-3.18-1.16a7.69,7.69,0,0,1-.66-3c-.09-1.6-.19-3.2-.36-4.79a8.68,8.68,0,0,0-2-4.55,6.56,6.56,0,0,0-8.17-2.25c-1.16.44-2.27,1-3.43,1.42-1.82.65-2.53.27-3.14-1.52a7.36,7.36,0,0,1-.33-2.59c0-1.16.07-2.33.11-3.49a5.87,5.87,0,0,0-3.41-5.65,13.84,13.84,0,0,0-8.94-1.23c-2.42.35-4.76.51-7-.63a4.5,4.5,0,0,0-3-.16,40.42,40.42,0,0,0-5.92,1.5,18.05,18.05,0,0,1-5.16.81A1.86,1.86,0,0,1,145.35,492.19Z"/>

<path class="cls-2" d="M187.52,367.16c-1.49,0-3,0-4.53,0a4.11,4.11,0,0,1-2.91-1.3,27.82,27.82,0,0,1-4.15-4.78,111.94,111.94,0,0,0-10.05-11.81c-3.08-3.2-6.88-4.16-11.09-4.21a4.8,4.8,0,0,0-4,1.88,7.3,7.3,0,0,1-.57.66c-.71.68-1.13,1.87-2.35,1.72a5.05,5.05,0,0,1-3.74-2,23.9,23.9,0,0,1-2.53-4.83c-.84-2.1-1.66-4.2-2.62-6.25a12.19,12.19,0,0,0-5.37-5.54,25.92,25.92,0,0,1-7.31-6.17,8.64,8.64,0,0,1-1.68-3,35.05,35.05,0,0,1-.83-16.22,9.3,9.3,0,0,1,2-4.32c1.42-1.76,2.82-3.53,4.22-5.3a29.12,29.12,0,0,0,5.89-12.78,13.43,13.43,0,0,1,5.15-8.8,29.51,29.51,0,0,0,3.4-3.4,12.76,12.76,0,0,1,6.82-4.1c5.26-1,7.83-4.27,8.46-9.44.31-2.6,1.25-5.09,1.41-7.73a8,8,0,0,0-1.66-5.94,7.58,7.58,0,0,0-5.55-2.66c-1.57-.1-1.58-.12-1.63-1.73s-.13-2.92-.08-4.37a5.41,5.41,0,0,1,2.89-5.05,7.76,7.76,0,0,0,4.28-6.2,18.61,18.61,0,0,1,2.38-6.3,2.28,2.28,0,0,1,2.43-1.39c2.07.19,4-.61,6-1.06,3.3-.76,3.49-.63,3.5,2.75,0,1.24,0,2.48-.08,3.72a4.85,4.85,0,0,0,3,5.06c2.34,1.11,4.6,1.33,6.77-.39a15.46,15.46,0,0,0,2.82-3.32c.92-1.31,1.79-2.67,2.81-3.9a6.46,6.46,0,0,1,6.36-2.53,33.54,33.54,0,0,1,5.41,1.22c0,.33.09.5,0,.59a30.75,30.75,0,0,0-4.37,10.17,14.54,14.54,0,0,1-1.49,3.63q-2,3.61-4,7.25a12.24,12.24,0,0,1-6.3,5.76c-5,2-7.16,6.42-6,11.69a7.51,7.51,0,0,1-.7,5.68,12.53,12.53,0,0,0-1.79,6.23,7.33,7.33,0,0,0,1.6,4.65c.32.4.67.77,1,1.18,1.6,2.07,1.2,4.37-.84,5.62a21.57,21.57,0,0,0-3.17,2.67,8.39,8.39,0,0,0-2,3.07,4.66,4.66,0,0,0,3.43,6.54,8.82,8.82,0,0,0,2.61.17,1.52,1.52,0,0,1,1.84,1.42c.39,2.86.23,5.65-2.45,7.43-3.43,2.27-2.92,6.39-.3,8.8a18.06,18.06,0,0,0,3.71,2.68c1.35.71,1.44,1.85,1.39,3.15s-.84,1.76-1.84,2.16a24.25,24.25,0,0,0-3,1.3c-3.09,1.8-3.11,5.09-.1,6.95a5.29,5.29,0,0,0,1,.51,7.23,7.23,0,0,1,4.6,4.35,4.39,4.39,0,0,0,2.5,2.34c2,.85,1.76,2,.93,3.5-1,1.79-1.83,3.64-2.65,5.51a13.07,13.07,0,0,0-.89,5.76,22.65,22.65,0,0,0,2.45,9.19C187.82,361.27,188.14,363.87,187.52,367.16Z"/>

<path class="cls-3" d="M272.54,316.13a36.48,36.48,0,0,1,.12,4.75,5.16,5.16,0,0,1-2.3,3.79c-.95.66-2,1.24-3,1.84a7.61,7.61,0,0,0-3,3.34,5,5,0,0,0,.17,5.21c.7,1.1,1.52,2.13,2.27,3.21a6.69,6.69,0,0,1-.34,8.82c-.46.56-1,1.09-1.46,1.62a10.83,10.83,0,0,0-2.14,3.78,5.06,5.06,0,0,0,.21,4.22c1.82,3.58,2.26,7.5,2.88,11.39a2.52,2.52,0,0,1-1.51,2.85c-.77.41-1.59.74-2.37,1.12-2.47,1.19-3.28,2.76-2.81,5.49.13.79.36,1.56.52,2.34a3.88,3.88,0,0,1-1.39,4.29c-.87.66-1.7,1.39-2.5,2.13a10,10,0,0,0-3.24,5.32,4.78,4.78,0,0,0,2.27,5.44,15,15,0,0,0,3.64,1.44c3,1,3.94,2.48,3.55,5.59a7.83,7.83,0,0,1-3.09,5.34,26.42,26.42,0,0,1-5,2.66,1.06,1.06,0,0,1-1.37-.27,9.27,9.27,0,0,1-.78-.75c-2.4-3.15-5.78-5.09-8.92-7.33a14.12,14.12,0,0,0-4.39-1.88,10.44,10.44,0,0,1-5.71-3.8,11.15,11.15,0,0,0-1-1.14c-1.73-1.73-3.2-2.05-5.29-.78-3.18,1.95-6.47,1.95-9.9,1-.84-.23-1.64-.58-2.48-.85a10.9,10.9,0,0,1-6.72-5.85A24.06,24.06,0,0,0,206,388a9,9,0,0,0-5.55-4.31c-1-.23-1.25-.67-.93-1.7.47-1.49,1-2.58,2.74-3.19,2.89-1,5-3.23,6.72-5.72a8.31,8.31,0,0,0,1.18-5.24c0-1.53-.17-3.06-.26-4.59a9.62,9.62,0,0,1,.32-3.46,10.1,10.1,0,0,0,0-5.4c-.27-1.13-.55-2.27-.87-3.39a17.78,17.78,0,0,1,.2-9.49,12.24,12.24,0,0,1,1.33-3,3.43,3.43,0,0,1,3.63-1.86c.73.09,1.45.15,2.18.18,5.53.22,9.27-3,9.91-8.58.4-3.41-.32-6.29-3.35-8.42-2-1.4-2.12-2.87-.68-4.88a23,23,0,0,0,3.59-7.67,1.69,1.69,0,0,1,1.18-1.39c3.68-1.29,7.12-1.35,10.13,1.65,2.09,2.08,4.45,3.86,7.49,4.18,4.43.46,8.84.28,12.52-2.58,3.37-2.61,6.66-2.48,10.14-.47l.19.11c1.44.86,3.21,1.44,4.23,2.65S272.26,314.68,272.54,316.13Z"/>

<path class="cls-3" d="M236.67,218.07c-.41,2.33,1,3.9,3.1,5,3.54,1.79,7.08,2.25,10.44-.47,1.95-1.58,4.46-1.66,6.71-2.45.94-.33,1.83.27,2.63.79a11.71,11.71,0,0,1,3.42,3.92c1.32,2.11,2.62,4.21,4.94,5.42a1.83,1.83,0,0,1,.73.78,20.29,20.29,0,0,1,2.12,7.51,4.51,4.51,0,0,1-1.09,3,9.6,9.6,0,0,0-1.26,9.9,8.71,8.71,0,0,1-.14,7.57c-.77,1.48-1.15,3.15-1.8,4.69-1.08,2.53-3,3-5.2,1.34a4.34,4.34,0,0,0-6.76,1.66,4.07,4.07,0,0,1-4,3,6.47,6.47,0,0,0-3.62,1.41,6.25,6.25,0,0,1-6.19.88,16.59,16.59,0,0,0-7.1-.85c-3,.39-5.18,2.15-7,4.38s-1.8,2.11-4.39,1.08c-2.9-1.15-5.59-1.29-8.08,1.12-1.64,1.58-3.74,1.43-5.76.67a19.09,19.09,0,0,1-4.18-2.35,13.08,13.08,0,0,0-12.28-1.53c-1.73.58-3.46,1.12-5.19,1.7a10.32,10.32,0,0,1-2.13.43c-1.08.12-1.77-.05-1.95-1.34a6.75,6.75,0,0,0-1.8-3.2,5.66,5.66,0,0,1-.75-6.52c.44-.92.84-1.86,1.23-2.8a8.2,8.2,0,0,0,.24-5.95c-1.38-4.29-.38-7,3.73-8.73a17.75,17.75,0,0,0,8.91-8.59,37.36,37.36,0,0,1,3-4.58,15.62,15.62,0,0,0,2.75-7.28,24.08,24.08,0,0,1,2.71-7.79,1.26,1.26,0,0,1,1.5-.8,7.86,7.86,0,0,0,8.11-9.36c-.34-1.56-.82-3.1-1.1-4.67a5.31,5.31,0,0,1,3.68-6.36,4.49,4.49,0,0,1,.61-.23c1.28-.27,2.71-1,3.81-.67,1.32.4.88,2.24,1.3,3.42a49.18,49.18,0,0,1,1.47,5.48,10.09,10.09,0,0,0,9.4,7.79c1.09.06,2.19,0,3.28,0,1.67,0,1.88.2,2,1.86C236.71,216.78,236.67,217.29,236.67,218.07Z"/>

<path class="cls-3" d="M133.5,465.19a2.57,2.57,0,0,1,.33.52c1.13,4.69,4.17,7.18,8.91,7.66a11.09,11.09,0,0,1,4.11,1.4,4.53,4.53,0,0,1,2.48,5.78,11.17,11.17,0,0,1-1.81,3.47l-3.37,4.84a10.41,10.41,0,0,0-1.42,2.7c-.84,2.57.27,4.35,3,4.63a13.12,13.12,0,0,0,5-.26c1.33-.37,2.64-.81,4-1.22.84-.25,1.66-.54,2.51-.76,3.24-.85,4.49-.22,5.65,2.95a24.44,24.44,0,0,1,1.35,6.61,7.9,7.9,0,0,1-1.59,5.13,22.25,22.25,0,0,0-3.63,10.4,17,17,0,0,0-.15,1.74,3.73,3.73,0,0,0,1.88,3.69,4.14,4.14,0,0,0,4.53-.46,16,16,0,0,0,1.3-1.17c1.79-1.53,2.78-1.49,4.79.18,1.65,1.37,2.18,3,1,4.59a10.06,10.06,0,0,0-1.81,5.69,5.17,5.17,0,0,1-4.05,4.87,56.31,56.31,0,0,1-7.73,1.35c-2,.3-3.5-.8-4.84-2.11a20,20,0,0,0-3.65-3.09,6.87,6.87,0,0,0-9.73,2.62,5.86,5.86,0,0,1-3.7,3,16.71,16.71,0,0,1-12.36-.06c-.54-.22-1.11-.35-1.67-.52a8.15,8.15,0,0,0-7.49,1,24.34,24.34,0,0,1-3.91,2.39,23.8,23.8,0,0,1-11.52,1.89A1.71,1.71,0,0,1,98,543.26a15.5,15.5,0,0,0-2.36-5.14,24.11,24.11,0,0,1-3.39-10c-.88-6.19-1.77-12.39-2.59-18.6A15.91,15.91,0,0,0,87.31,503a9.78,9.78,0,0,0-3.23-3.2,1.59,1.59,0,0,1-1-1.77c.15-.79.85-.94,1.45-1.16a5.47,5.47,0,0,1,2.38-.14,34.06,34.06,0,0,0,13.54-1.87,6.76,6.76,0,0,0,4.61-4,9.73,9.73,0,0,1,3.61-4.28,30.9,30.9,0,0,1,6-3.56c4.71-1.95,6.78-5.81,7.67-10.42.46-2.43,2.28-3.83,3.4-5.75.25-.41.78-.33,1.21-.35A21,21,0,0,0,133.5,465.19Z"/>

<path class="cls-3" d="M330.64,124.1a18.3,18.3,0,0,0-2.47,6,6,6,0,0,1-2.43,3.54,29.79,29.79,0,0,0-4.19,3.82,6.29,6.29,0,0,1-.79.76,5.58,5.58,0,0,1-4.86,1.45,26.59,26.59,0,0,0-18.78,3.13,9.72,9.72,0,0,1-8.37.88c-1.81-.56-3.63-1.08-5.45-1.61a7.48,7.48,0,0,1-2.79-1.66c-1.52-1.36-3.05-2.71-4.64-4-3.84-3.12-8.3-4-13.13-3.58-4.08.38-8,1.45-12,2.21a22.06,22.06,0,0,1-10.59-.16c-5.46-1.62-10.83-.93-16.08.94a13.4,13.4,0,0,1-7.27.79c-2.92-.57-5.37-1.79-6.91-4.47a6.27,6.27,0,0,0-4.35-3,19,19,0,0,0-4.13-.42,44.56,44.56,0,0,1-15.25-2.63,6.27,6.27,0,0,1,3.28-.86,53.07,53.07,0,0,1,12.82,1.11,21.14,21.14,0,0,0,13.24-1.16c4-1.66,7.77-3.68,11.75-5.3,1.07-.43,2.15-.88,3.26-1.24a8.39,8.39,0,0,1,6.77.57c.7.38,1.44.7,2.14,1.09,2.78,1.58,5.73,1.45,8.72.87a4.64,4.64,0,0,0,3-2c.76-1.15,1.51-2.32,2.18-3.53a19.9,19.9,0,0,1,3.88-5,8.68,8.68,0,0,1,5.73-2.69c5.45-.29,7.87-4.86,5.47-9.84a20,20,0,0,0-1.57-2.62,12.63,12.63,0,0,1-1.68-3.29,10.91,10.91,0,0,0-4.75-6.06,4.33,4.33,0,0,1-1.52-1.23c-.59-.91-.19-1.75.89-1.81.65,0,1.31.06,2,.07a6.07,6.07,0,0,0,6.4-4.84,3.77,3.77,0,0,1,.72-2c2.06,1.93,4.68,2,7.31,2a9.3,9.3,0,0,1,4.53,1.43,15.38,15.38,0,0,1,3.5,2.6c2.66,2.7,5.32,5.4,8,8.13a12.37,12.37,0,0,1,3.52,8.25,26.5,26.5,0,0,0,.88,5.38,11.85,11.85,0,0,0,7.5,8.51c1.62.64,3.3,1.13,5,1.64a16.21,16.21,0,0,1,5.12,2.39c4.51,3.37,9.7,5.27,15,6.95Z"/>

<path class="cls-3" d="M164.37,213.05c.49-2.18.81-4,1.13-5.89a11,11,0,0,1,2.29-4.92c2.79-3.53,3.17-7.57,2.61-11.81-.37-2.81-.89-5.61-1.33-8.41-.09-.58-.17-1.15-.21-1.73-.32-4.34-3.1-7.08-7.44-7.29-.94,0-1.89,0-2.84-.05a5.55,5.55,0,0,1-3.89-1.74,22.67,22.67,0,0,1-5.85-9.59c-.79-2.67-.62-5.17,1.28-7.38a8,8,0,0,0,1.54-3.11c.43-1.47.44-1.39,1.88-1.21a112.65,112.65,0,0,1,13.27,2.58,8.63,8.63,0,0,0,4.54,0c.77-.22,1.2-.18,1.41.73.54,2.3,2.22,3.5,4.31,4.24a16.53,16.53,0,0,0,4.71.87c3,.15,5.95.61,8.94.53a15.44,15.44,0,0,1,4.11.57c1.91.47,2.12.74,2.12,2.68,0,1-.06,2-.13,3.06a4.13,4.13,0,0,0,2.26,4.15,18,18,0,0,0,8.15,2.19,52.73,52.73,0,0,0,13.27-.73,12,12,0,0,1,3.69-.26c1.86.23,2.54.81,3,2.63a5.2,5.2,0,0,1,.22,1.29,5.2,5.2,0,0,0,2.38,4.21c1,.79,2.17,1.47,3.17,2.32,1.73,1.49,1.71,2.94-.08,4.35a28.5,28.5,0,0,1-4.84,3l-5.43,2.8a3.84,3.84,0,0,0-1.88,1.46c-.6,1.25-1.72,1.43-2.84,1.69s-2.29.47-3.41.77a8.92,8.92,0,0,0-6.4,10.83c.29,1.2.74,2.36,1.11,3.54,1,3,.06,5.09-2.73,6.51a3.58,3.58,0,0,1-3.71-.47,14.75,14.75,0,0,0-7.08-1.94c-4.8-.28-8.27,1.78-10.58,5.93a28.27,28.27,0,0,1-2.39,4.17c-1.41,1.78-2.77,2.11-4.8,1.21a3,3,0,0,1-2.1-3.41c.09-2,.55-3.91.11-5.88a12.12,12.12,0,0,0-.37-1.69,2.74,2.74,0,0,0-3-2.06,24,24,0,0,0-5.39.79C166.35,212.74,165.5,212.85,164.37,213.05Z"/>

<path class="cls-2" d="M14.84,382.21a33.72,33.72,0,0,0,11.88-2.47c3.65-1.58,6.66-3.9,8.26-7.7a8.07,8.07,0,0,0,.58-5.32,15.61,15.61,0,0,1,.4-9.46,12,12,0,0,0,.18-6.28,132.22,132.22,0,0,0-3.92-15.44,30,30,0,0,0-1.91-4.4c-.41-.82-.21-1.23.44-1.82a4.61,4.61,0,0,1,4.19-1.26,11.69,11.69,0,0,0,6.65-.22,4.09,4.09,0,0,1,3.39.39c3,1.53,4.91,3.84,5.2,7.29a52.83,52.83,0,0,0,1,6.26c1.15,5.69,4.46,9.38,10.1,10.85a4.07,4.07,0,0,1,2.27,1.75,33.35,33.35,0,0,0,7.66,7,2.53,2.53,0,0,0,1,.38c3.46.55,6.39,2.39,9.5,3.8a4.28,4.28,0,0,1,2.78,3.82c.25,3.12.58,6.24.86,9.35a5.84,5.84,0,0,1-.84,3.78,8.3,8.3,0,0,0-1.3,4.12,4,4,0,0,1-2.68,3.66c-2.6,1.15-5.22,2.12-8.2,1.7s-5.43.82-7.74,2.44a4.41,4.41,0,0,0-2.09,4.3c.38,3.28-1.19,5.38-4,6.82a31.21,31.21,0,0,0-4.11,2.49c-.82.61-1.25.37-1.77-.26-.65-.79-1.34-1.54-2-2.32a50.69,50.69,0,0,0-4.48-4.79,18.47,18.47,0,0,0-6.29-3.86c-5-1.79-10-3.64-15-5.38a13,13,0,0,1-5.38-3.61A50.15,50.15,0,0,1,14.84,382.21Z"/>

<path class="cls-3" d="M179,322.82a2,2,0,0,1,1.36-1.1c.75-.29,1.51-.54,2.24-.87a6.15,6.15,0,0,0,1.2-10.79c-1-.74-2.08-1.37-3-2.14-1.94-1.57-2-2.86-.07-4.39,3.73-3,4.18-7.59,2.88-11.52a4,4,0,0,0-4.18-2.85,7,7,0,0,1-2.61-.06,1.35,1.35,0,0,1-.93-2.15,8.33,8.33,0,0,1,2.25-2.65c1.28-1.08,2.58-2.13,3.84-3.23a1.86,1.86,0,0,1,1.37-.54,17.36,17.36,0,0,0,8.95-2.48,9.57,9.57,0,0,1,10.7.37,20,20,0,0,0,5.83,2.94c2.94.76,5.64.43,7.87-1.86a3.33,3.33,0,0,1,1.66-1c2.05-.41,3.12.7,2.7,2.76A14.36,14.36,0,0,1,218.9,286a21.06,21.06,0,0,0-3,7.22c-.86,4.32.48,7.18,4.38,9.21.38.21.79.37,1.17.59,1.54.93,2,1.94,1.45,3.68a20.15,20.15,0,0,1-2.52,5.55,7.07,7.07,0,0,0-1.26,6.38,6.28,6.28,0,0,0,2.16,3.19c1.35,1.1,2.36,2.31,2.28,4.22a8.88,8.88,0,0,1-2.27,6,5.71,5.71,0,0,1-4.06,1.35c-1.23.06-2.47,0-3.71.07a5.57,5.57,0,0,0-4.63,2.46c-3.35,4.8-4,10.05-2.67,15.64.19.78.45,1.54.66,2.31a8.59,8.59,0,0,1,.11,4.72,18.39,18.39,0,0,0-.26,7.17c.53,4.41-1.36,7.45-5.74,9.19a13.48,13.48,0,0,0-1.38-3.81c-1.28-2.08-2.17-2.48-4.53-1.88a24.75,24.75,0,0,1-2.53.66c-1.34.21-1.72-.32-1.44-1.69a16.64,16.64,0,0,0-.66-8,60.79,60.79,0,0,0-2.6-6.24,14.22,14.22,0,0,1-.08-11.45c.78-1.8,1.68-3.56,2.39-5.39,1.15-3,.59-4.64-2.13-6.27a6.37,6.37,0,0,1-2.66-2.78,7.65,7.65,0,0,0-3.9-3.66A4.81,4.81,0,0,1,179,322.82Z"/>

<path class="cls-3" d="M251.06,414.68a1.26,1.26,0,0,1-.61,1.24c-.63.5-1.27,1-1.91,1.46a6.58,6.58,0,0,0-2.39,3.05,7.19,7.19,0,0,1-4.84,4.38,22.52,22.52,0,0,1-2.31.64,9.05,9.05,0,0,0-6.22,5.07c-.64,1.22-1.2,2.49-1.83,3.72a7.82,7.82,0,0,1-4,3.86c-2.61,1.12-5.2,2.3-7.75,3.52a2,2,0,0,1-2.41-.29,9.75,9.75,0,0,1-3-4c-.72-1.83-1.41-3.67-2.16-5.49a13.37,13.37,0,0,0-2.92-4.57c-1.89-1.84-2.93-2-5.27-.82a34.27,34.27,0,0,0-3.15,2,12.74,12.74,0,0,1-9.53,2.21,9.75,9.75,0,0,1-3.75-1.7,3.84,3.84,0,0,1-1.57-3.21c-.06-1.39,0-2.77-.06-4.16-.11-4-2.08-6.17-6.05-6.72-1.66-.23-3.56.05-4.93-.69s-1.71-2.77-2.65-4.14a14.9,14.9,0,0,0-1.32-1.73,3.32,3.32,0,0,0-3.55-1.09c-1.39.41-2.8.79-4.2,1.19a5.66,5.66,0,0,1-1.25.34,1.32,1.32,0,0,1-1.49-1.8,5.73,5.73,0,0,1,.74-1.56,13.07,13.07,0,0,1,2.56-3,19.83,19.83,0,0,0,5.06-5.95,2.76,2.76,0,0,1,2.67-1.55c1.68,0,3.35-.1,5-.13A11.28,11.28,0,0,0,183,392.5a10.8,10.8,0,0,1,7.14-2.19,8.66,8.66,0,0,0,8.09-4.25c.55-.91,1.05-.75,1.75-.33a8.79,8.79,0,0,1,3,3.08c.86,1.44,1.68,2.9,2.49,4.37a11.42,11.42,0,0,0,6.71,5.59,36.94,36.94,0,0,0,6.06,1.76,12.41,12.41,0,0,0,7.63-1.2l.78-.38c2.59-1.26,2.63-1.29,4.15,1a9.55,9.55,0,0,0,5.53,4,29.53,29.53,0,0,1,9.09,4.6c2.15,1.53,3.53,3.64,5.27,5.47A2.38,2.38,0,0,1,251.06,414.68Z"/>

<path class="cls-3" d="M235.75,273.92a10.48,10.48,0,0,1,4.07.68,8.33,8.33,0,0,0,8.45-1.28,5.53,5.53,0,0,1,3.25-1.1c2.44-.13,4.16-1.17,4.85-3.63a4.43,4.43,0,0,1,.57-1.18,1.62,1.62,0,0,1,2.72-.38c3.59,3,8.15,1.7,9.78-2.7q.38-1,.78-2c.68-1.75.77-1.77,2.43-.76a4.12,4.12,0,0,1,2.2,4.77c-.16,1-.41,2-.63,3a6.88,6.88,0,0,0,8.06,8.43,12.43,12.43,0,0,0,3.9-1.37,6.8,6.8,0,0,1,8.24,1l.31.31c1.19,1.28,3,2.21,3.71,3.63s-.72,3.24-.9,4.95a40,40,0,0,0-.46,7.41c.39,4.8-1.44,8.64-4.87,11.89a5.86,5.86,0,0,1-6,1.73,5.9,5.9,0,0,0-5.2.75c-3.49,2.32-6.87,1.86-10.18-.38a20.19,20.19,0,0,0-5.48-2.67,9,9,0,0,0-8.69,1.39c-3.24,2.57-7,2.69-10.79,2.48a9.5,9.5,0,0,1-5.16-2.19c-1.11-.84-2.18-1.71-3.29-2.55a10.83,10.83,0,0,0-8.69-2,19.77,19.77,0,0,0-2.14.43,1.08,1.08,0,0,1-1.34-.36,11.16,11.16,0,0,0-3.54-2.5c-2.61-1.5-3.1-2.59-2.63-5.57a13,13,0,0,1,1.31-3.69c1.52-3,3.47-5.94,3.45-9.56,0-.7.59-.78,1.1-.76a4,4,0,0,0,3.43-2c.26-.35.57-.67.81-1A6.86,6.86,0,0,1,235.75,273.92Z"/>

<path class="cls-3" d="M351.31,93.66c-1.14,0-2.29,0-3.44,0-4,0-6.1,1.93-6.33,5.87-.06,1-.17,1.89-.28,2.83a4.5,4.5,0,0,1-1.47,2.85l-2.72,2.54A14.83,14.83,0,0,0,332,120a2.35,2.35,0,0,1,0,.65,2.41,2.41,0,0,1-.21.52c-3.1-.54-5.9-2-8.75-3.19a37.13,37.13,0,0,1-6.08-3.44,25.09,25.09,0,0,0-8-3.5,23.33,23.33,0,0,1-4.12-1.42,9.22,9.22,0,0,1-5.63-7.51c-.26-1.8-.54-3.6-.76-5.41a15.6,15.6,0,0,0-4.68-9.17c-2.28-2.36-4.63-4.65-7-6.91a18.91,18.91,0,0,0-9.28-5.06,5.47,5.47,0,0,0-1.72-.25c-2.46.33-4.53-.6-6.6-1.76-2.29-1.28-4.66-2.42-6.84-3.88-3.63-2.44-5.18-6.21-6.32-10.16-.52-1.83.27-3.09,2-3.86,4.39-2,5.67-4,4.58-9.48-.33-1.68-.83-3.34-1.29-5.15a13.14,13.14,0,0,1,5.4,3.89c3.76,5.09,8.92,8.33,14.36,11.2a13.54,13.54,0,0,1,6,5.8,13.23,13.23,0,0,0,8.59,6.6,37.61,37.61,0,0,1,11,5.27,61.86,61.86,0,0,0,13,6.64,20,20,0,0,0,12.25.27,43.77,43.77,0,0,1,6.57-1.62c.36,0,.72-.13,1.08-.15,2.69-.16,3.5.78,2.93,3.38-1,4.72-.3,6.39,4,8.62,1.61.84,3.27,1.57,4.91,2.34Z"/>


<path class="cls-2" d="M85.38,457.94a20.1,20.1,0,0,1,.88-6,16.89,16.89,0,0,0,.58-6.7,19.42,19.42,0,0,1-.1-3.49c.26-3,1.62-5.29,4.63-6.25a22.58,22.58,0,0,0,6.15-3.27,5.23,5.23,0,0,1,4.53-.9c3.54.85,7.11,1.56,10.66,2.34a7.13,7.13,0,0,1,2.61,1.08,1,1,0,0,1,.14,1.79,8.32,8.32,0,0,1-1.39,1.05c-1.06.64-2.12,1.29-3.23,1.84a10.28,10.28,0,0,0-5.55,6.41,10.74,10.74,0,0,1-.78,1.81,3.34,3.34,0,0,1-2.7,1.95,11.06,11.06,0,0,0-2.77.55c-1.5.62-2.46,1.62-2.35,3.3.15,2.27-.66,4.29-1.38,6.36a2.74,2.74,0,0,1-1.77,1.77,10.44,10.44,0,0,1-5.08,1c-2.37-.29-2.91-.76-3.08-3.1C85.34,459,85.38,458.45,85.38,457.94Z"/>
</svg>